# xmcd
#
# Track frame offsets:
#	150
#	22658
#	39389
#	60105
#	78234
#	97820
#	116030
#	137031
#	151867
#	173047
#	193511
#	210324
#	228467
#	247594
#
# Disc length: 3505 seconds
#
# Revision: 0
# Processed by: cddbd v1.5.2PL0 Copyright (c) Steve Scherf et al.
# Submitted via: EasyCDDAExtractor 5.0.4.1
#
DISCID=940daf0e
DTITLE=Célia Sakamoto - Assumindo o Governo
DYEAR=2006
DGENRE=Gospel
TTITLE0=Assumindo o Governo
TTITLE1=Quem é Aquele
TTITLE2=O Toque
TTITLE3=Quero Adora-lo
TTITLE4=Era Domingo
TTITLE5=Barrabás
TTITLE6=Entrada Triunfal
TTITLE7=Quando Chega o Tempo
TTITLE8=Ungido
TTITLE9=É na Hora de Deus
TTITLE10=Meu Deus é Forte
TTITLE11=Conquistando o Coração de Deus
TTITLE12=Ezequiel
TTITLE13=Domingo Legal
EXTD=
EXTT0=
EXTT1=
EXTT2=
EXTT3=
EXTT4=
EXTT5=
EXTT6=
EXTT7=
EXTT8=
EXTT9=
EXTT10=
EXTT11=
EXTT12=
EXTT13=
PLAYORDER=
